<svg xmlns="http://www.w3.org/2000/svg" aria-hidden="true" style="position:absolute;width:0;height:0;overflow:hidden">
  <defs>
    <symbol id="icon-logo" viewBox="0 0 32 32">
      <path fill="#fff" d="M17.284 3.195c.38-.041.82.039 1.185.142.827.235 1.5.738 1.899 1.456.415.736.494 1.596.221 2.387-.347.976-1.092 1.466-2.022 1.917l.01 2.845c.665.189 1.311.403 1.915.728a5.591 5.591 0 0 1 2.733 3.45 5.531 5.531 0 0 1-.665 4.452 5.645 5.645 0 0 1-3.495 2.461c-1.935.451-3.576-.037-5.24-.959-.735.732-1.462 1.473-2.179 2.222.32.704.427 1.444.214 2.192-.208.732-.758 1.359-1.462 1.73-.789.416-1.688.492-2.553.261-.858-.229-1.58-.724-1.999-1.469-.413-.732-.448-1.589-.18-2.371.305-.888.925-1.435 1.797-1.841.939-.342 1.715-.23 2.631.078.763-.748 1.481-1.534 2.252-2.275-.847-1.548-1.122-2.866-.681-4.572-.959-.417-1.883-.903-2.843-1.321a3.43 3.43 0 0 1-1.875.954 3.617 3.617 0 0 1-2.525-.566 2.967 2.967 0 0 1-1.301-2.033c-.119-.791.105-1.662.648-2.286.56-.644 1.43-1.032 2.308-1.117a3.427 3.427 0 0 1 2.392.681c.855.667 1.101 1.496 1.205 2.484.91.52 1.951.92 2.899 1.384 1.233-1.358 2.134-1.787 3.931-2.303l.002-2.824a4.27 4.27 0 0 1-.923-.458c-.709-.489-1.175-1.225-1.29-2.04a2.916 2.916 0 0 1 .682-2.269c.594-.694 1.387-1.01 2.307-1.123zm3.963 14.047c-.183-1.943-2.014-3.383-4.1-3.225-2.104.16-3.667 1.885-3.483 3.844s2.046 3.406 4.148 3.221c2.084-.183 3.618-1.898 3.435-3.841zM27.276 12.524c.089-.004.175-.005.264.007.277.037.549.162.702.388.162.24.184.56.206.838.11 1.377.028 2.809.028 4.19 0 1.128.134 2.658-.091 3.745-.071.341-.314.505-.605.69-.111.013-.227.027-.339.021a.944.944 0 0 1-.648-.294c-.16-.176-.155-.529-.169-.749-.102-1.584-.016-3.218-.014-4.806.001-.903-.132-2.63.071-3.436.073-.288.352-.439.595-.593zM24.726 14.736c.3.051.565.156.74.399.269.374.277 4.041.142 4.564-.074.286-.339.426-.591.563-.288-.016-.668-.04-.86-.273-.287-.346-.263-4.243-.1-4.732.095-.284.408-.404.67-.522z" style="fill:var(--color1, #fff)"/>
    </symbol>
  </defs>
</svg>
