<svg xmlns="http://www.w3.org/2000/svg" aria-hidden="true" style="position:absolute;width:0;height:0;overflow:hidden">
  <defs>
    <symbol id="icon-facebook" viewBox="0 0 30 32">
      <path fill="#fff"
        d="M30.476 16.607c0-8.467-6.822-15.331-15.238-15.331S0 8.14 0 16.607c0 7.652 5.572 13.995 12.857 15.145V21.039H8.988v-4.432h3.869v-3.378c0-3.842 2.275-5.965 5.756-5.965 1.667 0 3.411.299 3.411.299v3.773h-1.921c-1.893 0-2.483 1.182-2.483 2.394v2.876h4.226l-.675 4.432H17.62v10.713c7.285-1.15 12.857-7.493 12.857-15.145z"
        style="fill:var(--color1, #fff)" />
    </symbol>
    <symbol id="icon-instagram" viewBox="0 0 30 32">
      <path fill="#fff"
        d="M21.895 1.41H8.421A8.42 8.42 0 0 0 0 9.831v13.474a8.42 8.42 0 0 0 8.421 8.421h13.474a8.42 8.42 0 0 0 8.421-8.421V9.831a8.42 8.42 0 0 0-8.421-8.421zm5.473 21.895a5.492 5.492 0 0 1-5.474 5.474H8.42a5.492 5.492 0 0 1-5.474-5.474V9.831A5.491 5.491 0 0 1 8.42 4.357h13.474a5.491 5.491 0 0 1 5.474 5.474v13.474zm-4.21-13.053a1.684 1.684 0 1 0 0-3.368 1.684 1.684 0 0 0 0 3.368zm-8-1.263a7.579 7.579 0 1 0 0 15.158 7.579 7.579 0 0 0 7.579-7.579 7.561 7.561 0 0 0-7.579-7.579zm-4.632 7.579a4.632 4.632 0 1 0 9.264 0 4.632 4.632 0 0 0-9.264 0z"
        style="fill:var(--color1, #fff)" />
    </symbol>
    <symbol id="icon-main-logo" viewBox="0 0 110 32">
      <path fill="#764191"
        d="M16.403.241c.434-.05.936.047 1.354.174.945.288 1.714.904 2.169 1.784.474.902.564 1.958.252 2.927-.397 1.196-1.248 1.798-2.311 2.351l.012 3.489c.759.231 1.498.494 2.187.893 1.585.918 2.668 2.467 3.123 4.23a7.208 7.208 0 0 1-.759 5.46c-.887 1.493-2.3 2.596-3.993 3.018-2.211.553-4.087-.046-5.987-1.175-.84.898-1.67 1.806-2.489 2.724.366.864.488 1.771.245 2.689-.237.897-.866 1.666-1.67 2.121-.901.51-1.928.602-2.916.32-.981-.281-1.805-.888-2.284-1.8-.472-.897-.511-1.949-.206-2.907.348-1.089 1.056-1.759 2.052-2.257 1.072-.419 1.959-.281 3.006.096.872-.917 1.692-1.881 2.573-2.79-.968-1.898-1.281-3.515-.778-5.606-1.095-.511-2.152-1.107-3.248-1.619-.586.61-1.302 1.028-2.143 1.169-1.003.169-2.06-.105-2.884-.694a3.673 3.673 0 0 1-1.486-2.494c-.135-.969.12-2.037.741-2.802.64-.789 1.634-1.266 2.637-1.371a3.724 3.724 0 0 1 2.733.836c.976.818 1.259 1.835 1.377 3.046 1.039.637 2.229 1.128 3.312 1.697 1.409-1.665 2.439-2.191 4.492-2.824l.001-3.463a4.782 4.782 0 0 1-1.054-.561 3.712 3.712 0 0 1-1.474-2.501 3.757 3.757 0 0 1 .78-2.781C14.445.769 15.352.382 16.403.243zm4.528 17.224a4.35 4.35 0 1 0-8.666.76 4.35 4.35 0 0 0 8.666-.76zM102.108 12.055c.708.001 1.416.01 2.124.028l-.004 3.743c.545-.424 1.14-.74 1.83-.844a3.505 3.505 0 0 1 2.637.67c.908.687 1.385 1.843 1.523 2.947.175 1.402-.154 2.75-1.019 3.867-.574.554-1.262.941-2.056 1.072-1.165.191-2.089-.216-2.998-.894l-.004.818-2.033-.004-.001-11.403zm3.64 4.905c-.631.21-1.07.509-1.378 1.117-.342.675-.365 1.509-.098 2.212.203.538.585 1.004 1.117 1.244.386.175.749.18 1.165.155.659-.249 1.102-.569 1.401-1.229.312-.689.307-1.52.011-2.214-.227-.533-.632-.963-1.177-1.174-.341-.131-.682-.149-1.042-.111zM41.271 12.034c1.246 3.84 2.84 7.576 4.056 11.426l-2.296.002c-.269-.822-.529-1.752-.939-2.512-.268-.115-.586-.076-.873-.073a122.7 122.7 0 0 1-3.323-.011c-.348.848-.628 1.721-.903 2.595l-2.339-.002c1.221-3.833 2.677-7.617 3.996-11.42.872.019 1.749-.002 2.622-.005zm-1.309 2.838c-.483 1.374-.934 2.768-1.464 4.125l1.681-.001 1.307-.014c-.184-.517-1.25-3.881-1.524-4.11zM89.685 12.058l2.196.013c-.03 2.647-.007 5.298-.007 7.945-.001 1.093.11 2.287-.012 3.365l-.121.083h-2.058l-.004-4.889c-1.645-.046-3.303-.005-4.949-.003l.001 4.894-2.209-.004.009-11.401 2.201.005.001 4.661h4.957l-.003-4.67zM93.202 15.219c.729.021 1.459.013 2.188.017-.009 1.165-.193 4.384.089 5.347.111.38.333.728.693.913.541.278 1.09.117 1.628-.072.238-.266.443-.515.561-.859.386-1.123.18-4.006.174-5.343.694.019 1.391.004 2.085.001-.016.8-.003 1.603-.004 2.404l.011 5.834c-.683.01-1.365.005-2.047-.015l-.063-.074c.01-.173.012-.314-.018-.487-.639.277-1.209.697-1.936.712-.843.017-1.758-.245-2.364-.851-.459-.459-.739-1.077-.883-1.703-.31-1.348-.127-4.332-.113-5.824zM63.686 14.989c1.089-.085 2.224-.008 3.104.725.617.514.816 1.13.883 1.897l-1.968-.002c-.113-.21-.227-.455-.404-.619a1.505 1.505 0 0 0-1.078-.377c-.298.016-.679.135-.865.387-.113.154-.175.311-.132.503.224 1.009 2.79.884 3.607 1.419.52.341.919.951 1.034 1.56a2.292 2.292 0 0 1-.408 1.775c-.627.865-1.593 1.175-2.599 1.329-.931.056-2.01-.194-2.756-.761-.699-.532-.95-1.185-1.045-2.025.663.001 1.326-.005 1.989-.018.039.125.082.246.145.361.289.533.865.651 1.4.808.353-.081.831-.172 1.082-.457.151-.172.204-.471.14-.691-.245-.843-2.703-.943-3.556-1.467-.505-.311-.876-.764-1.011-1.349-.121-.53-.075-1.125.223-1.59.538-.84 1.28-1.185 2.216-1.408zM76.929 14.987c.62-.05 1.227-.047 1.831.117.697.189 1.438.578 1.79 1.238.17.317.3.886.186 1.237-.565.122-1.255.039-1.835.033-.086-.287-.158-.509-.391-.707a1.415 1.415 0 0 0-1.062-.322c-.3.031-.685.178-.852.447-.1.16-.141.324-.078.509.363 1.068 2.535.814 3.38 1.297.538.308.988.849 1.141 1.454.164.65.056 1.372-.319 1.931-.56.835-1.449 1.149-2.388 1.331-.921.114-1.989-.082-2.759-.613-.791-.545-1.028-1.229-1.206-2.123l1.973-.015c.12.302.229.537.485.746.341.279.745.406 1.184.347.341-.045.676-.202.88-.487.133-.187.2-.414.136-.642-.247-.878-2.426-.823-3.29-1.288-.584-.315-1.046-.838-1.231-1.481a2.017 2.017 0 0 1 .196-1.599c.477-.81 1.353-1.206 2.231-1.408zM52.64 12.955c.655.023 1.315.009 1.97.011-.007.74.004 1.48.032 2.219l1.944.001-.004 1.694-1.851-.001c.001 1.066-.243 3.817.246 4.641.382.301 1.145.189 1.609.183l-.007 1.404c.004.145.004.218-.07.344-.259.124-.524.152-.81.154-.752.007-1.791-.129-2.331-.693-1.086-1.131-.739-4.457-.734-6.035l-1.254.002.004-1.698 1.249.008.007-2.236zM69.539 12.946l1.934.011c-.015.741.016 1.485.03 2.226l1.975-.004-.003 1.702-1.859-.001c.023 1.015-.226 3.85.234 4.617.494.295 1.113.216 1.668.215-.007.489.003.979.005 1.469l-.023.186c-.191.202-.486.194-.747.2-.794.019-1.891-.107-2.467-.71-1.075-1.125-.74-4.405-.731-5.978l-1.323.001c-.017-.563-.01-1.129-.015-1.692l1.318.007.004-2.249zM27.82 11.679c.102-.005.2-.007.302.008.316.046.628.198.802.476.185.294.21.687.235 1.028.125 1.688.032 3.444.032 5.138 0 1.384.153 3.26-.104 4.592-.081.419-.358.619-.691.846-.127.015-.259.033-.387.026a1.043 1.043 0 0 1-.74-.361c-.183-.216-.177-.648-.193-.919-.116-1.942-.018-3.946-.016-5.893.001-1.107-.151-3.225.082-4.213.083-.353.402-.539.68-.727zM50.244 15.156l.278-.003c.329.368.166 1.535.155 2.018-.696-.007-1.354-.035-1.899.471-1.023.949-.678 4.425-.688 5.82-.548-.005-1.617.195-2.035-.154l-.022-.346c.01-2.586-.055-5.169-.038-7.754.664.021 1.33.007 1.994.003l-.023 1.142c.123-.177.245-.366.388-.527.503-.568 1.186-.619 1.891-.669zM57.795 15.19l2.086.001.005 8.275-2.11-.003.019-8.273zM24.906 14.391c.343.063.645.192.845.489.308.459.316 4.955.162 5.596-.084.351-.388.522-.675.691-.33-.02-.763-.049-.983-.335-.327-.425-.3-5.203-.114-5.802.108-.348.466-.495.765-.64zM58.7 11.781a1.153 1.153 0 1 1 .27 2.29 1.153 1.153 0 0 1-.27-2.29z"
        style="fill:var(--color2, #764191)" />
    </symbol>
    <symbol id="icon-youtobe" viewBox="0 0 45 32">
      <path fill="#fff"
        d="M43.932 5.968A5.349 5.349 0 0 0 40.173 2.2c-3.341-.917-16.706-.932-16.706-.932s-13.363-.015-16.706.862a5.466 5.466 0 0 0-3.768 3.793c-.881 3.341-.89 10.27-.89 10.27s-.009 6.963.866 10.27a5.345 5.345 0 0 0 3.761 3.765c3.375.917 16.704.932 16.704.932s13.365.015 16.706-.86a5.356 5.356 0 0 0 3.769-3.761c.883-3.339.89-10.266.89-10.266s.043-6.965-.868-10.306zm-24.74 16.645.011-12.8 11.108 6.411-11.119 6.389z"
        style="fill:var(--color1, #fff)" />
    </symbol>
  </defs>
</svg>