<svg aria-hidden="true" style="position: absolute; width: 0; height: 0; overflow: hidden;" version="1.1" xmlns="http://www.w3.org/2000/svg" xmlns:xlink="http://www.w3.org/1999/xlink">
<defs>
    <!-- Логотип для мобильных -->
    <symbol id="icon-logo" viewBox="0 0 73 32">
      <path fill="#764191" d="M13.471 6.854c.259-.03.558.028.807.104a2.126 2.126 0 0 1 1.293 1.064c.282.538.336 1.167.15 1.745-.236.713-.744 1.072-1.377 1.401l.007 2.08c.453.138.893.294 1.304.533.945.548 1.591 1.471 1.862 2.522a4.295 4.295 0 0 1-.453 3.255c-.529.89-1.371 1.547-2.38 1.799-1.318.329-2.436-.027-3.569-.701a95.159 95.159 0 0 0-1.484 1.624c.218.515.291 1.056.146 1.603a2.093 2.093 0 0 1-.996 1.264 2.237 2.237 0 0 1-1.739.191c-.585-.167-1.076-.529-1.362-1.073-.281-.535-.305-1.162-.123-1.733.207-.649.63-1.049 1.224-1.346.639-.25 1.168-.168 1.792.057.52-.547 1.009-1.121 1.534-1.663-.577-1.131-.764-2.095-.464-3.342-.653-.305-1.283-.66-1.936-.965a2.274 2.274 0 0 1-1.278.697 2.335 2.335 0 0 1-1.719-.413 2.192 2.192 0 0 1-.886-1.487c-.081-.578.072-1.215.442-1.671.382-.47.974-.755 1.572-.817a2.22 2.22 0 0 1 1.629.498c.582.488.75 1.094.821 1.816.619.38 1.329.672 1.974 1.011.84-.993 1.454-1.306 2.678-1.683l.001-2.064a2.835 2.835 0 0 1-.629-.335 2.215 2.215 0 0 1-.879-1.491 2.24 2.24 0 0 1 .465-1.658c.404-.507.945-.738 1.572-.821zm2.699 10.269a2.592 2.592 0 1 0-5.165.454 2.592 2.592 0 0 0 5.165-.455zM64.564 13.898c.422.001.844.006 1.266.017l-.002 2.231c.325-.253.679-.441 1.091-.503a2.087 2.087 0 0 1 1.572.4c.542.409.826 1.099.908 1.757.105.836-.092 1.639-.607 2.305-.342.33-.753.561-1.226.639-.695.114-1.246-.129-1.787-.533l-.002.487-1.212-.002-.001-6.798zm2.17 2.924c-.376.125-.638.304-.822.666a1.663 1.663 0 0 0-.058 1.319c.121.321.349.599.666.742.23.104.447.107.695.093.393-.149.657-.339.835-.733.186-.411.183-.906.007-1.32a1.263 1.263 0 0 0-.702-.7 1.299 1.299 0 0 0-.621-.066zM28.296 13.885c.743 2.289 1.693 4.516 2.418 6.812l-1.369.001c-.16-.49-.315-1.044-.56-1.498-.16-.068-.349-.045-.52-.043-.66.007-1.321.005-1.981-.007a19.644 19.644 0 0 0-.538 1.547l-1.394-.001c.728-2.285 1.596-4.541 2.382-6.808.52.011 1.043-.001 1.563-.003zm-.78 1.692c-.288.819-.557 1.65-.873 2.459l1.002-.001.779-.008c-.109-.308-.745-2.314-.909-2.45zM57.158 13.9l1.309.008c-.018 1.578-.004 3.159-.004 4.737 0 .651.066 1.363-.007 2.006l-.072.049h-1.227l-.003-2.914c-.981-.027-1.969-.003-2.95-.002v2.917l-1.317-.003.005-6.796 1.312.003.001 2.779h2.955l-.002-2.784zM59.255 15.784c.434.012.87.008 1.304.01-.005.695-.115 2.613.053 3.188.066.227.199.434.413.544.322.166.65.07.971-.043.142-.159.264-.307.334-.512.23-.67.107-2.388.103-3.185.414.011.829.002 1.243 0-.01.477-.002.956-.002 1.433l.006 3.478c-.407.006-.814.003-1.22-.009l-.038-.044a1.225 1.225 0 0 0-.01-.29c-.382.165-.721.416-1.154.424-.503.01-1.048-.146-1.409-.508-.274-.274-.441-.642-.526-1.015-.185-.803-.076-2.583-.068-3.472zM41.659 15.647c.649-.051 1.326-.005 1.85.432.368.306.487.674.526 1.131l-1.173-.001c-.068-.125-.135-.271-.241-.369a.9.9 0 0 0-.643-.225c-.178.01-.405.081-.515.231-.067.091-.104.186-.078.3.133.602 1.663.527 2.15.846.31.203.548.567.617.93.069.371-.02.755-.244 1.058-.374.515-.95.701-1.549.793-.555.034-1.199-.115-1.643-.454-.416-.317-.566-.706-.623-1.207.395.001.791-.003 1.186-.011.023.075.049.146.086.215.172.318.516.388.834.482.21-.048.495-.102.645-.272a.474.474 0 0 0 .084-.412c-.146-.503-1.612-.562-2.12-.875-.301-.186-.522-.456-.603-.804-.072-.316-.045-.671.133-.948.321-.501.763-.707 1.321-.84zM49.554 15.645c.369-.03.731-.028 1.092.07.416.113.857.345 1.067.738.101.189.179.528.111.738-.337.073-.748.024-1.094.02-.051-.171-.094-.303-.233-.422a.845.845 0 0 0-.633-.192c-.179.018-.408.106-.508.266a.338.338 0 0 0-.047.303c.216.637 1.511.485 2.015.773.321.183.589.506.68.867.098.387.033.818-.19 1.151-.334.498-.864.685-1.423.793-.549.068-1.185-.049-1.645-.366-.471-.325-.613-.733-.719-1.266l1.176-.009c.071.18.136.32.289.445a.9.9 0 0 0 .706.207.76.76 0 0 0 .525-.29.45.45 0 0 0 .081-.383c-.147-.523-1.446-.491-1.961-.768a1.486 1.486 0 0 1-.734-.883 1.2 1.2 0 0 1 .117-.953c.285-.483.806-.719 1.33-.84zM35.074 14.434c.39.013.784.005 1.175.007-.004.441.002.882.019 1.323l1.159.001-.003 1.01H36.32c0 .636-.145 2.276.147 2.767.228.18.683.112.959.109l-.004.837c.003.086.002.13-.042.205a1.09 1.09 0 0 1-.483.092c-.448.004-1.067-.077-1.39-.413-.647-.674-.441-2.657-.437-3.598l-.748.001.002-1.012.745.005.004-1.333zM45.148 14.429l1.153.007c-.009.442.01.886.018 1.327l1.178-.002-.002 1.015-1.108-.001c.014.605-.135 2.295.139 2.753.295.176.663.129.995.128-.004.291.002.584.003.876l-.014.111c-.114.121-.29.115-.445.119-.474.011-1.127-.064-1.471-.423-.641-.671-.441-2.626-.436-3.564h-.789c-.01-.336-.006-.673-.009-1.009l.786.004.002-1.341zM20.277 13.674a.903.903 0 0 1 .18.005.665.665 0 0 1 .478.284c.11.176.125.409.14.613.075 1.006.019 2.053.019 3.063 0 .825.091 1.943-.062 2.737-.048.25-.214.369-.412.504-.076.009-.155.02-.231.015a.623.623 0 0 1-.441-.215c-.109-.128-.106-.386-.115-.548-.069-1.158-.011-2.352-.01-3.513.001-.66-.09-1.923.049-2.512.05-.211.239-.321.405-.433zM33.645 15.746l.166-.002c.196.22.099.915.093 1.203-.415-.004-.807-.021-1.132.281-.61.566-.404 2.638-.41 3.47-.327-.003-.964.116-1.213-.091l-.013-.206c.006-1.541-.033-3.082-.023-4.623.396.012.793.004 1.189.002l-.014.681c.073-.105.146-.218.232-.314.3-.338.707-.369 1.127-.399zM38.147 15.766l1.243.001.003 4.933-1.258-.002.011-4.932zM18.54 15.29c.204.038.385.114.504.292.183.274.188 2.954.096 3.336-.05.209-.231.311-.403.412-.197-.012-.455-.029-.586-.2-.195-.253-.179-3.102-.068-3.459.065-.208.278-.295.456-.381zM38.687 13.734a.689.689 0 1 1 .16 1.368.689.689 0 0 1-.16-1.368z" style="fill:var(--color1, #764191)"/>
    </symbol>

    <!-- Логотип для десктопа -->
    <symbol id="logo-icon" viewBox="0 0 143 41">
      <path d="M21.1872 0.184302C21.7474 0.119831 22.3966 0.244482 22.9362 0.408911C24.1572 0.780844 25.1492 1.57754 25.738 2.71458C26.3498 3.88011 26.4667 5.24288 26.0632 6.49583C25.5508 8.04099 24.4522 8.81784 23.0798 9.53196L23.0954 14.0388C24.0761 14.3378 25.0302 14.6761 25.9206 15.1921C27.9674 16.3786 29.3678 18.3795 29.9548 20.656C30.5753 23.0432 30.2221 25.58 28.9733 27.7077C27.8281 29.6362 26.0022 31.0606 23.8161 31.6062C20.9603 32.3198 18.5383 31.547 16.0837 30.0876C14.9988 31.2477 13.9268 32.4206 12.8688 33.6062C13.3419 34.722 13.498 35.8932 13.1843 37.0788C12.8776 38.2378 12.0659 39.231 11.0271 39.8181C9.86293 40.4769 8.53672 40.5964 7.26045 40.2312C5.99386 39.8687 4.92836 39.0849 4.30928 37.906C3.69993 36.7468 3.64859 35.3877 4.04365 34.1501C4.4931 32.7437 5.409 31.8769 6.696 31.2341C8.08098 30.6924 9.22589 30.8711 10.5778 31.3581C11.7036 30.1735 12.7637 28.9289 13.9011 27.7546C12.6511 25.3032 12.2463 23.2147 12.8962 20.5134C11.4811 19.8527 10.1169 19.0834 8.70088 18.4216C7.94418 19.2094 7.01858 19.7496 5.93233 19.9323C4.6371 20.1503 3.27136 19.7973 2.20674 19.0368C1.15183 18.2726 0.458185 17.1076 0.287794 15.8161C0.112909 14.5639 0.442897 13.1843 1.24483 12.196C2.07186 11.1767 3.35507 10.5613 4.65108 10.4255C5.92447 10.3015 7.19499 10.6898 8.18135 11.5046C9.44252 12.5609 9.80674 13.8742 9.95967 15.4392C11.3017 16.262 12.8386 16.8959 14.237 17.6306C16.0566 15.4796 17.3866 14.8017 20.0388 13.9841L20.0407 9.51145C19.5659 9.32143 19.0921 9.08999 18.6784 8.78586C17.632 8.01179 16.9447 6.8459 16.7751 5.5554C16.6183 4.27157 16.9806 2.97783 17.7819 1.96262C18.6579 0.863818 19.829 0.364038 21.1872 0.184302ZM27.0358 22.4323C26.7659 19.3557 24.063 17.0748 20.9851 17.3249C17.8792 17.5775 15.5722 20.31 15.8444 23.4138C16.1169 26.5184 18.8642 28.807 21.9665 28.5154C25.0411 28.2254 27.3056 25.5087 27.0358 22.4323Z" fill="white"/>
      <path d="M131.888 15.4453C132.802 15.4465 133.716 15.4591 134.631 15.4824L134.627 20.3164C135.331 19.7685 136.098 19.3608 136.991 19.2275C138.197 19.0451 139.425 19.3571 140.397 20.0928C141.571 20.98 142.186 22.4732 142.364 23.9004C142.591 25.711 142.167 27.4521 141.049 28.8955C140.308 29.6109 139.417 30.1112 138.392 30.2793C136.886 30.5266 135.693 29.9991 134.519 29.123L134.515 30.1797L131.889 30.1748L131.888 15.4453ZM136.59 21.7803C135.774 22.0512 135.207 22.4383 134.81 23.2236C134.368 24.0949 134.337 25.171 134.682 26.0791C134.945 26.7747 135.438 27.3768 136.125 27.6865C136.623 27.9121 137.094 27.9188 137.63 27.8867C138.481 27.5648 139.055 27.1522 139.44 26.2998C139.843 25.4096 139.835 24.3362 139.454 23.4404C139.161 22.7514 138.639 22.1966 137.935 21.9238C137.495 21.754 137.053 21.7312 136.59 21.7803Z" fill="white"/>
      <path d="M53.3105 15.4177C54.9198 20.3776 56.9784 25.2026 58.5479 30.1765L55.582 30.1794C55.2344 29.1174 54.8987 27.916 54.3682 26.9343C54.0214 26.7861 53.6109 26.8358 53.2402 26.8405C51.8097 26.8547 50.3786 26.8504 48.9482 26.8259C48.4991 27.9218 48.1388 29.0494 47.7832 30.1784L44.7617 30.1755C46.3394 25.2242 48.2208 20.3359 49.9238 15.4235C51.0505 15.448 52.1833 15.4222 53.3105 15.4177ZM51.6191 19.0837C50.9946 20.859 50.4131 22.6589 49.7295 24.4118L51.9014 24.4108L53.5879 24.3923C53.3509 23.7249 51.9731 19.3783 51.6191 19.0837Z" fill="white"/>
      <path d="M115.844 15.4492L118.68 15.4662C118.642 18.8856 118.672 22.3098 118.671 25.7289C118.67 27.1402 118.814 28.6827 118.655 30.075L118.499 30.1817H115.841L115.835 23.8674C113.71 23.8079 111.569 23.8607 109.443 23.8636L109.444 30.1845L106.59 30.1789L106.601 15.4532L109.444 15.4598L109.445 21.4809H115.848L115.844 15.4492Z" fill="white"/>
      <path d="M120.386 19.5309C121.327 19.5578 122.271 19.5479 123.212 19.5531C123.201 21.058 122.963 25.2154 123.328 26.4595C123.471 26.9504 123.758 27.3998 124.223 27.6386C124.921 27.9973 125.631 27.7896 126.325 27.5461C126.633 27.2025 126.897 26.8806 127.049 26.4369C127.547 24.986 127.281 21.2619 127.273 19.5358C128.17 19.5598 129.07 19.541 129.967 19.5364C129.946 20.5701 129.963 21.6074 129.961 22.6421L129.975 30.177C129.094 30.1902 128.212 30.1836 127.331 30.1572L127.25 30.0618C127.263 29.8381 127.266 29.6559 127.226 29.4331C126.4 29.7909 125.665 30.3337 124.726 30.3526C123.636 30.3743 122.454 30.0363 121.673 29.2528C121.08 28.66 120.718 27.8623 120.532 27.0533C120.132 25.3126 120.368 21.4573 120.386 19.5309Z" fill="white"/>
      <path d="M82.2608 19.2343C83.6674 19.1241 85.1334 19.2235 86.27 20.171C87.0667 20.8344 87.3244 21.6311 87.4103 22.6213L84.8681 22.6185C84.7218 22.3466 84.5755 22.0313 84.3461 21.8189C83.9798 21.481 83.4493 21.3054 82.9537 21.3318C82.5686 21.3526 82.0768 21.5065 81.837 21.8321C81.6916 22.0304 81.6114 22.2343 81.6671 22.4816C81.9559 23.7852 85.2703 23.6238 86.3257 24.3139C86.9968 24.7538 87.5123 25.542 87.6614 26.3284C87.8106 27.1326 87.6189 27.9634 87.1337 28.6213C86.3238 29.7381 85.0758 30.1393 83.7769 30.3384C82.5742 30.4111 81.18 30.0883 80.2171 29.3557C79.3146 28.6685 78.9899 27.8255 78.8672 26.7399C79.7234 26.7418 80.5805 26.7333 81.4367 26.7163C81.4868 26.8778 81.5425 27.0335 81.6236 27.1827C81.9965 27.8708 82.7413 28.0238 83.4314 28.2267C83.8873 28.1219 84.5047 28.0049 84.8285 27.6367C85.0239 27.414 85.0919 27.0279 85.0097 26.7447C84.6935 25.6553 81.5179 25.5269 80.4163 24.8491C79.764 24.447 79.2844 23.8617 79.1107 23.1065C78.954 22.4221 79.0135 21.6528 79.3987 21.0533C80.0934 19.9681 81.0525 19.5225 82.2608 19.2343Z" fill="white"/>
      <path d="M99.3682 19.2313C100.169 19.1664 100.953 19.1708 101.734 19.3819C102.634 19.6257 103.591 20.1287 104.046 20.9816C104.265 21.3904 104.433 22.1257 104.285 22.5798C103.556 22.7374 102.665 22.6308 101.915 22.6223C101.805 22.2513 101.711 21.9653 101.41 21.7085C101.029 21.3894 100.533 21.2384 100.038 21.2922C99.6514 21.3318 99.1539 21.5225 98.9378 21.869C98.8084 22.0757 98.7556 22.2881 98.8368 22.526C99.305 23.9052 102.111 23.5776 103.203 24.2006C103.898 24.598 104.479 25.2966 104.676 26.0782C104.889 26.9174 104.748 27.8501 104.264 28.5722C103.541 29.6503 102.392 30.0562 101.18 30.2913C99.9894 30.4385 98.6111 30.1855 97.6162 29.4992C96.5948 28.795 96.288 27.9115 96.0586 26.7569L98.6074 26.7381C98.7622 27.1279 98.9028 27.4319 99.2332 27.7019C99.6731 28.0625 100.195 28.2258 100.763 28.1503C101.202 28.0918 101.636 27.8897 101.899 27.5216C102.071 27.2799 102.157 26.9863 102.075 26.6928C101.756 25.559 98.9416 25.6298 97.8248 25.0285C97.0706 24.6216 96.473 23.9457 96.2342 23.116C96.0312 22.4136 96.1162 21.6821 96.4872 21.0505C97.1036 20.0045 98.2345 19.4928 99.3682 19.2313Z" fill="white"/>
      <path d="M67.9941 16.6075C68.8399 16.6367 69.6923 16.6186 70.5391 16.6223C70.5296 17.5777 70.5438 18.5333 70.5806 19.4882L73.0916 19.4897L73.0859 21.6782L70.6948 21.6773C70.6958 23.0546 70.3805 26.6078 71.0129 27.6716C71.5067 28.0606 72.4922 27.9152 73.0916 27.9086L73.0831 29.722C73.0888 29.9089 73.0878 30.0033 72.9925 30.1666C72.6583 30.3271 72.3157 30.3629 71.9466 30.3658C70.9752 30.3743 69.6338 30.1987 68.9352 29.4709C67.5324 28.0105 67.9808 23.7135 67.9874 21.6754L66.3672 21.6782L66.372 19.4847L67.9856 19.4956L67.9941 16.6075Z" fill="white"/>
      <path d="M89.823 16.5954L92.3208 16.6098C92.3019 17.5668 92.3415 18.5283 92.3595 19.4854L94.9111 19.4803L94.9073 21.6792L92.5058 21.6773C92.535 22.9885 92.2141 26.6502 92.8079 27.6414C93.446 28.0228 94.2455 27.9208 94.963 27.919C94.9545 28.5505 94.9668 29.1839 94.9696 29.8164L94.9394 30.0562C94.6921 30.3176 94.3116 30.3063 93.9746 30.3148C92.9485 30.3393 91.5316 30.177 90.7877 29.3982C89.3991 27.9444 89.8314 23.7078 89.8437 21.6763L88.1351 21.6773C88.1134 20.9495 88.1219 20.2193 88.1162 19.4915L89.8182 19.5003L89.823 16.5954Z" fill="white"/>
      <path d="M35.9353 14.9596C36.0666 14.9531 36.194 14.9512 36.3247 14.9701C36.733 15.0293 37.1353 15.2265 37.3601 15.5849C37.5987 15.9653 37.6314 16.4717 37.664 16.9123C37.8259 19.0927 37.7056 21.361 37.7051 23.5492C37.7046 25.3362 37.9027 27.7594 37.5708 29.4803C37.4664 30.0212 37.1077 30.2799 36.6782 30.5725C36.5146 30.5923 36.3434 30.615 36.1784 30.6055C35.8097 30.5848 35.4606 30.4205 35.2222 30.1392C34.9865 29.8607 34.9933 29.3019 34.9724 28.9526C34.8226 26.4444 34.9493 23.856 34.9516 21.3403C34.9529 19.9107 34.7563 17.1741 35.0569 15.8983C35.1644 15.4418 35.5758 15.2026 35.9353 14.9596Z" fill="white"/>
      <path d="M64.8966 19.4499L65.2555 19.4457C65.6809 19.9213 65.4697 21.4281 65.4561 22.0521C64.5572 22.0427 63.7071 22.0068 63.0028 22.66C61.6815 23.8853 62.127 28.3759 62.1139 30.178C61.4056 30.1714 60.0259 30.43 59.4848 29.9797L59.4566 29.5332C59.4695 26.1934 59.3855 22.8564 59.4068 19.5171C60.2642 19.5438 61.1245 19.5256 61.9824 19.521L61.9522 20.9958C62.1113 20.7674 62.2694 20.5228 62.454 20.3146C63.104 19.5813 63.9857 19.5149 64.8966 19.4499Z" fill="white"/>
      <path d="M74.6525 19.4941L77.3466 19.4951L77.3532 30.1837L74.6279 30.1799L74.6525 19.4941Z" fill="white"/>
      <path d="M32.1705 18.462C32.6128 18.5435 33.0042 18.7098 33.262 19.094C33.6596 19.6867 33.6704 25.4939 33.4712 26.3227C33.3623 26.7758 32.9702 26.9967 32.5986 27.2148C32.1729 27.1893 31.6134 27.1515 31.3292 26.7824C30.9062 26.2339 30.9412 20.062 31.182 19.2881C31.3219 18.8383 31.7843 18.6482 32.1705 18.462Z" fill="white"/>
      <path d="M75.8227 15.0903C76.6232 14.9962 77.3539 15.5557 77.4709 16.353C77.5889 17.1504 77.0508 17.8967 76.2579 18.0378C75.7226 18.1327 75.1789 17.9295 74.8381 17.5072C74.4964 17.0851 74.4124 16.5107 74.6172 16.0079C74.8221 15.5052 75.2837 15.1537 75.8227 15.0903Z" fill="white"/>
    </symbol>

    <!-- Иконка меню бургер -->
    <symbol id="icon-menu" viewBox="0 0 24 24">
      <path d="M4 6H20V8H4V6ZM8 11H20V13H8V11ZM13 16H20V18H13V16Z" fill="white"/>
    </symbol>

    <!-- Иконка закрытия -->
    <symbol id="icon-close" viewBox="0 0 24 24">
      <path d="M16.192 6.34424L11.949 10.5862L7.70697 6.34424L6.29297 7.75824L10.535 12.0002L6.29297 16.2422L7.70697 17.6562L11.949 13.4142L16.192 17.6562L17.606 16.2422L13.364 12.0002L17.606 7.75824L16.192 6.34424Z" fill="white"/>
    </symbol>


  </defs>
</svg> 