<svg width="0" height="0" class="hidden">
  <defs>
    <symbol fill="none" xmlns="http://www.w3.org/2000/svg" viewBox="0 0 16 16" id="close">
      <path d="M14.8348 14.3639L14.3633 14.8353C14.103 15.0956 13.6809 15.0956 13.4205 14.8353L7.99939 9.41408L2.57819 14.8352C2.31789 15.0956 1.89577 15.0956 1.63542 14.8352L1.16401 14.3638C0.903663 14.1035 0.903663 13.6814 1.16401 13.421L6.58519 7.99988L1.16401 2.57868C0.903663 2.31838 0.903663 1.89626 1.16401 1.63591L1.63541 1.16451C1.89576 0.90416 2.31789 0.90416 2.57819 1.16451L7.99939 6.58568L13.4205 1.1645C13.6809 0.904151 14.103 0.904151 14.3633 1.1645L14.8348 1.6359C15.0951 1.89625 15.0951 2.31838 14.8348 2.57868L9.41359 7.99988L14.8348 13.421C15.0951 13.6814 15.0951 14.1035 14.8348 14.3639Z" fill="white"></path>
    </symbol>
    <symbol fill="none" xmlns="http://www.w3.org/2000/svg" viewBox="0 0 31 29" id="star">
      <path d="M14.2266 1.12305C14.5547 0.343807 15.6297 0.295356 16.0508 0.977539L16.125 1.12305L19.2041 8.43652C19.4793 9.0897 20.0779 9.5457 20.7734 9.64941L20.9141 9.66504L28.9053 10.2988C29.7676 10.3671 30.1304 11.3549 29.6094 11.9541L29.4932 12.0684L23.4043 17.2207C22.8627 17.6793 22.6055 18.3848 22.7217 19.0771L22.75 19.2158L24.6104 26.9199C24.8173 27.7771 23.8659 28.4915 23.0723 28.0127H23.0732L16.2305 23.8838C15.6234 23.5174 14.8704 23.4939 14.2451 23.8145L14.1221 23.8838L7.2793 28.0127C6.53544 28.461 5.65381 27.8617 5.7168 27.0791L5.74219 26.9199L7.60254 19.2158C7.76906 18.5263 7.55629 17.8058 7.05273 17.3154L6.94824 17.2207L0.858398 12.0684C0.218411 11.5267 0.487324 10.5092 1.28125 10.3242L1.44629 10.2988L9.43848 9.66504C10.1461 9.609 10.7717 9.19082 11.0889 8.56445L11.1484 8.43652L14.2266 1.12305Z" fill="currentColor" stroke="black"></path>
    </symbol>
  </defs>
</svg>