<svg width="80" height="81" viewBox="0 0 80 81" fill="none" xmlns="http://www.w3.org/2000/svg">
<path d="M43.7509 8.08759C44.7118 7.98457 45.8253 8.18519 46.7509 8.44794C48.8452 9.04235 50.5467 10.3153 51.5566 12.1325C52.6058 13.9951 52.8072 16.1723 52.1152 18.1745C51.2363 20.644 49.3521 21.8858 46.998 23.027L47.0244 30.2292C48.7066 30.7071 50.3436 31.2481 51.8711 32.0729C55.3819 33.9692 57.7832 37.1671 58.79 40.8054C59.8543 44.6205 59.2491 48.6744 57.1074 52.0749C55.143 55.1571 52.0105 57.4334 48.2607 58.3054C43.3623 59.4458 39.2081 58.2108 34.998 55.8786C33.137 57.7327 31.2981 59.6078 29.4834 61.5026C30.2947 63.2858 30.5634 65.1566 30.0254 67.0515C29.4994 68.9039 28.1062 70.491 26.3242 71.4294C24.3274 72.4824 22.0524 72.6743 19.8632 72.0905C17.6906 71.5112 15.8645 70.2571 14.8027 68.3727C13.7576 66.5202 13.6691 64.3495 14.3466 62.3718C15.1175 60.1239 16.6879 58.739 18.8955 57.7116C21.2714 56.8457 23.2354 57.1304 25.5547 57.9089C27.4857 56.0155 29.3039 54.0268 31.2548 52.1501C29.1107 48.2322 28.4155 44.8951 29.5302 40.5778C27.1029 39.522 24.7627 38.2927 22.3339 37.2351C21.0361 38.4938 19.4498 39.357 17.5869 39.6491C15.3652 39.9976 13.0224 39.4328 11.1963 38.2175C9.38697 36.9962 8.19663 35.1348 7.90426 33.071C7.60423 31.0696 8.16924 28.8634 9.54489 27.2839C10.9633 25.655 13.1649 24.6728 15.3877 24.4558C17.5719 24.2575 19.7515 24.8781 21.4433 26.1804C23.6065 27.8685 24.2308 29.9665 24.4931 32.4675C26.7954 33.7827 29.4321 34.7971 31.831 35.9714C34.9521 32.5335 37.232 31.4489 41.7812 30.1423L41.7851 22.9948C40.9708 22.6912 40.1578 22.3216 39.4482 21.8356C37.6534 20.5986 36.4746 18.735 36.1836 16.6726C35.9145 14.6206 36.5364 12.5529 37.9111 10.9304C39.4134 9.1744 41.4215 8.37488 43.7509 8.08759ZM53.7802 43.6433C53.3174 38.726 48.6811 35.0801 43.4013 35.4802C38.0744 35.8841 34.1181 40.2506 34.5849 45.2106C35.0519 50.1725 39.7637 53.8309 45.0849 53.3649C50.3589 52.9018 54.243 48.5599 53.7802 43.6433Z" fill="#5E3474"/>
<path d="M69.043 31.7021C69.2682 31.6917 69.4868 31.6887 69.7109 31.7189C70.4112 31.8135 71.1012 32.1286 71.4869 32.7015C71.8961 33.3093 71.9521 34.1187 72.0081 34.8228C72.2858 38.3074 72.0795 41.9326 72.0786 45.4296C72.0778 48.2855 72.4175 52.1582 71.8483 54.9085C71.6692 55.7729 71.054 56.1863 70.3172 56.654C70.0366 56.6857 69.7429 56.7219 69.4599 56.7068C68.8276 56.6736 68.2287 56.4111 67.8198 55.9615C67.4155 55.5165 67.4272 54.6233 67.3914 54.0651C67.1345 50.0566 67.3517 45.9199 67.3556 41.8994C67.3579 39.6147 67.0208 35.2411 67.5363 33.2022C67.7207 32.4727 68.4264 32.0904 69.043 31.7021Z" fill="#5E3474"/>
<path d="M62.5887 37.3008C63.3475 37.4311 64.0188 37.6968 64.461 38.3108C65.143 39.2581 65.1614 48.5389 64.8198 49.8635C64.6329 50.5876 63.9605 50.9406 63.323 51.2891C62.593 51.2484 61.6333 51.188 61.1457 50.5982C60.4202 49.7216 60.4803 39.8579 60.8933 38.621C61.1333 37.9023 61.9263 37.5984 62.5887 37.3008Z" fill="#5E3474"/>
</svg>
